<svg width="683" height="614" viewBox="0 0 683 614" fill="none" xmlns="http://www.w3.org/2000/svg">
<rect width="683" height="614" fill="#1E1E1E"/>
<g id="atronaut-svg">
<g id="atronaut">
<g id="left-arm">
<path id="Vector" d="M291.923 327.872C293.522 326.208 294.415 323.98 294.414 321.66C294.413 319.341 293.517 317.113 291.917 315.451C291.587 315.119 291.229 314.814 290.849 314.541L304.011 255.264L283.633 255.603L278.632 317.238C277.635 318.92 277.216 320.889 277.442 322.836C277.667 324.784 278.524 326.602 279.878 328.006C280.656 328.797 281.581 329.426 282.599 329.855C283.617 330.285 284.709 330.508 285.813 330.511C286.916 330.514 288.01 330.297 289.03 329.873C290.051 329.449 290.979 328.825 291.761 328.038C291.816 327.984 291.87 327.928 291.923 327.872Z" fill="#6C63FF"/>
<path id="Vector_2" d="M335.037 141.923C335.037 141.923 330.543 157.014 325.31 174.427C323.664 179.909 321.939 185.621 320.264 191.173C314.794 209.224 309.807 225.491 309.344 226.139C308.299 227.624 308.427 231.631 309.344 236.306C309.531 237.243 309.107 240.891 308.309 246.124C307.264 252.991 305.579 262.58 303.785 272.368C302.356 280.193 300.858 288.137 299.567 294.905C297.546 305.411 296.038 313.076 296.038 313.076H277.313C277.313 313.076 280.831 233.624 284.773 227.893C288.716 222.152 284.773 226.647 281.817 222.66C278.86 218.673 283.788 220.667 288.755 215.543C293.722 210.43 289.701 212.693 285.759 208.706C284.3 207.23 287.563 197.831 292.254 186.578C294.442 181.355 296.935 175.723 299.399 170.301C304.495 159.107 309.491 148.811 311.472 144.744C311.472 144.734 311.482 144.724 311.482 144.714L312.369 142.92L335.037 141.923Z" fill="#F2F2F2"/>
</g>
<path id="Vector_3" d="M355.173 133.66C376.945 133.66 394.595 115.809 394.595 93.7898C394.595 71.7702 376.945 53.9197 355.173 53.9197C333.4 53.9197 315.75 71.7702 315.75 93.7898C315.75 115.809 333.4 133.66 355.173 133.66Z" fill="#F2F2F2"/>
<path id="Vector_4" d="M349.259 136.65C371.032 136.65 388.682 118.8 388.682 96.7801C388.682 74.7604 371.032 56.91 349.259 56.91C327.487 56.91 309.836 74.7604 309.836 96.7801C309.836 118.8 327.487 136.65 349.259 136.65Z" fill="#F2F2F2"/>
<path id="Vector_5" d="M392.624 533.303L355.672 533.302V532.829C355.673 528.972 357.188 525.272 359.885 522.544C362.582 519.817 366.241 518.284 370.055 518.284H370.056L376.805 513.105L389.399 518.285L392.624 518.285L392.624 533.303Z" fill="#F2F2F2"/>
<path id="Vector_6" d="M375.422 513.12L343.852 532.539L343.609 532.135C341.627 528.839 341.021 524.882 341.923 521.134C342.826 517.386 345.164 514.154 348.423 512.149L348.424 512.149L351.529 504.177L364.95 501.983L367.706 500.288L375.422 513.12Z" fill="#F2F2F2"/>
<path id="Vector_7" d="M397.128 407.239C396.961 408.435 396.714 412.502 396.429 418.422C395.039 447.129 392.624 519.403 392.624 519.403L377.575 514.669C377.575 514.669 359.677 460.067 362.633 430.164L360.505 419.758L356.858 401.976V401.966L345.751 347.812C345.751 347.812 343.316 362.485 343.119 365.923C342.922 369.362 340.951 370.359 339.965 370.359C335.028 370.359 336.545 369.472 337.265 374.406C337.787 377.954 333.51 398.298 331.066 409.422C330.119 413.748 329.449 416.678 329.449 416.678L333.628 425.788L368.271 501.342L355.173 508.439L302.918 430.114L297.763 422.389L296.659 413.728L287.967 345.58C287.967 345.58 285.256 337.875 287.967 337.675C290.687 337.466 292.224 338.333 291.456 335.413C290.687 332.482 306.456 283.641 306.456 283.641L388.258 301.583C388.258 301.583 396.32 317.79 393.186 325.505C390.042 333.22 395.758 392.965 392.496 395.617C389.244 398.268 387.144 396.145 391.639 400.7C392.326 401.426 393.138 402.02 394.034 402.454C396.813 403.73 397.917 401.657 397.128 407.239Z" fill="#F2F2F2"/>
<path id="Vector_8" d="M349.003 121.619C361.552 121.619 371.726 111.331 371.726 98.6386C371.726 85.9466 361.552 75.6578 349.003 75.6578C336.453 75.6578 326.28 85.9466 326.28 98.6386C326.28 111.331 336.453 121.619 349.003 121.619Z" fill="#A0616A"/>
<path id="Vector_9" d="M366.71 118.43L357.702 120.175C357.702 120.175 366.08 106.499 365.587 100.24C365.094 93.9801 358.353 91.7374 358.353 91.7374C358.353 91.7374 354.618 92.5547 350.685 93.0132C350.214 91.6721 349.603 90.3856 348.862 89.1758C348.716 90.7377 348.032 92.1982 346.93 93.3023C345.489 93.4275 344.038 93.258 342.663 92.8039C341.105 92.0863 341.135 90.8403 341.647 89.6741C336.572 90.0978 331.619 91.4735 327.041 93.7309C326.815 90.6708 326.93 87.5946 327.386 84.5608C327.603 84.501 327.82 84.4313 328.037 84.3614C329.38 83.9317 330.675 83.3604 331.9 82.657C330.537 82.4739 329.263 81.868 328.254 80.9226C329.081 78.4706 330.402 76.3475 332.482 75.3109C334.488 74.3185 336.682 73.7738 338.914 73.7136C341.147 73.6534 343.366 74.0792 345.422 74.962C345.422 74.962 340.603 71.4036 342.377 69.9484C342.495 70.068 342.613 70.1776 342.741 70.2873C342.909 70.4268 343.096 70.5763 343.274 70.7159C344.368 71.613 346.004 70.3471 346.22 68.9915C346.244 68.8203 346.277 68.6506 346.319 68.4831C346.349 68.3436 346.388 68.204 346.427 68.0745C346.461 67.9595 346.5 67.8463 346.546 67.7356C349.828 66.9382 359.752 70.1776 363.567 77.3144C363.567 77.3144 390.226 90.2722 366.71 118.43Z" fill="#3F3D56"/>
<path id="Vector_10" d="M396.14 281.649C390.226 275.728 391.32 248.746 391.32 248.746C391.32 248.746 397.204 158.141 389.241 152.071C383.734 148.052 377.875 144.552 371.737 141.615C371.382 141.455 371.195 141.366 371.195 141.366L366.109 126.863L334.778 125.218L329.308 135.963C329.308 135.963 328.451 136.023 327.11 136.213C322.104 136.91 310.336 139.382 311.381 147.087C312.701 156.855 303.378 216.85 300.539 219.85C297.701 222.85 298.45 233.815 305.467 240.782C312.484 247.749 307.438 266.697 302.51 274.672C299.553 279.552 298.188 285.25 298.608 290.958C298.608 290.958 302.51 312.548 312.366 305.571C316.121 302.909 321.453 302.571 327.869 303.059C327.932 303.064 328 303.072 328.062 303.077L327.869 304.056C336.779 304.724 347.788 306.986 359.565 306.857L359.216 305.855C359.333 305.855 359.448 305.861 359.565 305.86C361.556 305.84 363.557 305.75 365.587 305.571C383.15 304.026 390.906 308.91 393.183 303.577C395.46 298.245 402.053 287.569 396.14 281.649Z" fill="#F2F2F2"/>
<path id="Vector_11" d="M375.87 145.621C355.292 153.704 336.791 155.098 321.663 145.621V127.679C339.479 138.491 357.555 138.195 375.87 127.679V145.621Z" fill="#3F3D56"/>
<path id="Vector_12" opacity="0.3" d="M349.259 126.683C365.589 126.683 378.826 113.295 378.826 96.7801C378.826 80.2653 365.589 66.8775 349.259 66.8775C332.93 66.8775 319.692 80.2653 319.692 96.7801C319.692 113.295 332.93 126.683 349.259 126.683Z" fill="#6C63FF"/>
<path id="Vector_13" d="M391.639 260.248C359.837 268.331 331.244 269.724 307.865 260.248V242.306C335.399 253.117 363.334 252.822 391.639 242.306V260.248Z" fill="#3F3D56"/>
<path id="Vector_14" d="M397.128 407.239C396.961 408.435 396.714 412.502 396.429 418.422C384.555 420.368 372.488 420.817 360.505 419.758L356.858 401.976C369.136 404.243 381.703 404.405 394.034 402.454C396.813 403.73 397.917 401.657 397.128 407.239Z" fill="#3F3D56"/>
<path id="Vector_15" d="M333.628 425.788C323.523 428.063 313.253 429.509 302.918 430.114L297.763 422.389L296.659 413.728C308.276 414.03 319.872 412.579 331.066 409.422C330.119 413.748 329.449 416.678 329.449 416.678L333.628 425.788Z" fill="#3F3D56"/>
<path id="Vector_16" d="M336.447 183.498C336.447 186.141 335.408 188.676 333.56 190.546C331.712 192.415 329.205 193.465 326.591 193.465C323.977 193.465 321.47 192.415 319.622 190.546C317.774 188.676 316.735 186.141 316.735 183.498C316.735 177.993 325.606 166.553 326.591 173.53C327.577 180.507 336.447 177.993 336.447 183.498Z" fill="#6C63FF"/>
<path id="Vector_17" d="M327.663 166.597C327.308 166.567 326.953 166.557 326.588 166.557C322.298 166.563 318.172 168.23 315.06 171.217C311.947 174.203 310.084 178.282 309.853 182.615C309.843 182.904 309.834 183.203 309.834 183.502C309.834 183.911 309.843 184.31 309.883 184.708C310.131 188.256 311.477 191.636 313.731 194.366C315.985 197.097 319.032 199.04 322.44 199.92C325.847 200.801 329.443 200.573 332.715 199.271C335.988 197.968 338.772 195.656 340.672 192.662C341.054 192.071 341.396 191.455 341.697 190.818C342.882 188.319 343.442 185.564 343.329 182.795C343.215 180.025 342.431 177.327 341.045 174.935C339.66 172.544 337.715 170.533 335.382 169.079C333.048 167.626 330.398 166.773 327.663 166.597V166.597ZM339.233 192.373C337.687 194.253 335.756 195.771 333.572 196.821C331.389 197.871 329.006 198.428 326.588 198.454C322.988 198.448 319.514 197.117 316.815 194.708C314.115 192.299 312.376 188.978 311.923 185.366C311.844 184.748 311.804 184.126 311.805 183.502C311.803 183.416 311.806 183.329 311.815 183.243C311.882 179.325 313.468 175.59 316.231 172.842C318.994 170.094 322.713 168.553 326.588 168.551C326.677 168.79 326.766 169.019 326.864 169.239C331.073 179.306 340.199 178.548 341.372 183.502C341.939 185.897 341.595 188.42 340.406 190.569C340.072 191.207 339.679 191.811 339.233 192.373V192.373Z" fill="#6C63FF"/>
<g id="right-arm">
<path id="Vector_18" d="M358.479 323.323C358.151 321.027 358.721 318.693 360.068 316.816C361.416 314.939 363.434 313.667 365.694 313.272C366.155 313.199 366.621 313.165 367.087 313.17L390.846 257.37L407.145 269.746L375.411 322.607C375.242 324.561 374.438 326.403 373.124 327.846C371.811 329.289 370.062 330.252 368.151 330.584C367.062 330.762 365.949 330.722 364.875 330.466C363.801 330.209 362.787 329.741 361.892 329.088C360.997 328.435 360.238 327.61 359.659 326.661C359.079 325.711 358.689 324.656 358.513 323.554C358.501 323.477 358.489 323.4 358.479 323.323Z" fill="#6C63FF"/>
<path id="Vector_19" d="M423.246 228.641C420.289 232.628 416.347 228.132 420.289 233.874C423 237.821 407.467 274.82 397.523 297.486C393.028 307.743 389.668 315.069 389.668 315.069L372.903 305.251L370.942 304.105C370.942 304.105 386.317 264.972 391.264 250.908C392.082 248.576 392.624 246.931 392.752 246.273C393.679 241.598 393.797 237.591 392.752 236.106C392.505 235.553 392.295 234.983 392.122 234.402C390.141 228.531 384.109 208.705 378.462 189.957C376.816 184.454 375.19 179.052 373.711 174.118C369.917 161.449 367.068 151.891 367.068 151.891L389.737 152.887C389.737 152.887 390.111 153.525 390.771 154.681C392.348 157.432 395.581 163.104 399.326 169.922C402.027 174.826 405.003 180.338 407.812 185.76C414.967 199.555 421.127 212.842 419.304 214.686C415.361 218.673 411.33 216.41 416.298 221.524C421.275 226.647 426.203 224.654 423.246 228.641Z" fill="#F2F2F2"/>
</g>
</g>
</g>
</svg>
