<svg width="856" height="631" viewBox="0 0 856 631" fill="none" xmlns="http://www.w3.org/2000/svg">
<rect width="856" height="631" fill="#1E1E1E"/>
<g id="undraw_stars_re_6je7 1">
<path id="Vector" d="M428 404C477.153 404 517 364.153 517 315C517 265.847 477.153 226 428 226C378.847 226 339 265.847 339 315C339 364.153 378.847 404 428 404Z" fill="#F2F2F2"/>
<path id="Vector_2" d="M507 309C507.001 319.637 504.906 330.171 500.836 339.998C496.766 349.826 490.799 358.756 483.277 366.278C475.756 373.799 466.826 379.766 456.998 383.836C447.171 387.906 436.637 390.001 426 390C416.519 389.995 407.111 388.337 398.2 385.1C384.266 380.024 371.992 371.222 362.714 359.654C353.436 348.085 347.509 334.193 345.579 319.489C343.65 304.785 345.791 289.834 351.77 276.263C357.748 262.692 367.336 251.021 379.488 242.522C391.64 234.022 405.891 229.019 420.689 228.057C435.488 227.096 450.266 230.212 463.416 237.068C476.566 243.924 487.583 254.256 495.268 266.939C502.953 279.622 507.011 294.17 507 309V309Z" fill="white"/>
<path id="Vector_3" d="M412 307C425.807 307 437 295.807 437 282C437 268.193 425.807 257 412 257C398.193 257 387 268.193 387 282C387 295.807 398.193 307 412 307Z" fill="#E4E4E4"/>
<path id="Vector_4" d="M503.84 286.53C498.422 289.137 492.246 289.703 486.444 288.126C480.641 286.549 475.602 282.934 472.249 277.943C468.896 272.952 467.453 266.92 468.186 260.952C468.92 254.985 471.779 249.481 476.24 245.45C489.498 255.931 499.148 270.294 503.84 286.53Z" fill="#F2F2F2"/>
<path id="Vector_5" d="M453 345C457.971 345 462 340.971 462 336C462 331.029 457.971 327 453 327C448.029 327 444 331.029 444 336C444 340.971 448.029 345 453 345Z" fill="#E4E4E4"/>
<path id="Vector_6" d="M416 387C415.999 387.79 415.895 388.577 415.69 389.34C409.718 388.593 403.851 387.171 398.2 385.1C398.669 382.928 399.925 381.007 401.726 379.706C403.526 378.405 405.745 377.815 407.954 378.051C410.163 378.287 412.207 379.331 413.692 380.983C415.178 382.635 416 384.778 416 387Z" fill="#F2F2F2"/>
<path id="Vector_7" d="M363 305C363 309.566 361.264 313.961 358.145 317.296C355.026 320.63 350.756 322.655 346.2 322.96C344.138 311.073 344.739 298.877 347.96 287.25C352.162 287.951 355.979 290.119 358.733 293.369C361.487 296.619 362.999 300.74 363 305Z" fill="#F2F2F2"/>
</g>
</svg>
