<svg width="782" height="639" viewBox="0 0 782 639" fill="none" xmlns="http://www.w3.org/2000/svg">
<rect width="782" height="639" fill="#1E1E1E"/>
<g id="undraw_my_universe_803e 1">
<g id="planet">
<path id="Vector" d="M391.498 393.896C432.221 393.896 465.234 360.883 465.234 320.16C465.234 279.437 432.221 246.424 391.498 246.424C350.775 246.424 317.762 279.437 317.762 320.16C317.762 360.883 350.775 393.896 391.498 393.896Z" fill="#6C63FF"/>
<path id="Vector_2" d="M390.997 356.896C315.857 356.889 256.998 343.267 257 325.884C257.001 315.462 277.858 306.165 314.222 300.378C314.352 300.356 314.484 300.36 314.612 300.39C314.74 300.419 314.861 300.474 314.968 300.55C315.075 300.626 315.166 300.723 315.236 300.834C315.305 300.945 315.352 301.069 315.374 301.199C315.396 301.328 315.392 301.461 315.362 301.589C315.333 301.717 315.278 301.838 315.202 301.945C315.126 302.051 315.029 302.142 314.918 302.212C314.806 302.282 314.682 302.329 314.553 302.35L314.549 302.351L314.537 302.353C280.281 307.805 259.001 316.822 259 325.884C258.999 341.604 319.446 354.889 390.997 354.896C462.549 354.902 522.999 341.628 523 325.908C523.001 316.807 501.586 307.765 467.112 302.31C466.982 302.29 466.858 302.245 466.745 302.177C466.632 302.109 466.534 302.02 466.456 301.914C466.378 301.808 466.322 301.688 466.291 301.56C466.259 301.433 466.253 301.3 466.273 301.17C466.293 301.04 466.338 300.915 466.406 300.803C466.475 300.69 466.564 300.592 466.67 300.515C466.776 300.437 466.897 300.381 467.025 300.35C467.152 300.318 467.285 300.313 467.415 300.333L467.418 300.333L467.425 300.334C504.016 306.124 525.001 315.446 525 325.908C524.998 343.291 466.137 356.903 390.997 356.896Z" fill="#3F3D56"/>
<path id="Vector_3" d="M396.353 344.984C331.604 383.11 273.974 401.242 265.154 386.263C259.866 377.282 273.12 358.687 301.517 335.246C301.617 335.161 301.734 335.098 301.859 335.058C301.984 335.019 302.116 335.004 302.247 335.016C302.378 335.027 302.505 335.064 302.621 335.125C302.738 335.185 302.841 335.268 302.926 335.369C303.01 335.469 303.074 335.586 303.113 335.711C303.153 335.836 303.167 335.968 303.156 336.099C303.145 336.23 303.107 336.357 303.047 336.473C302.986 336.59 302.903 336.693 302.803 336.778L302.8 336.78L302.79 336.788C276.04 358.87 262.279 377.438 266.877 385.248C274.854 398.794 333.681 379.566 395.338 343.261C456.995 306.956 502.346 264.841 494.369 251.295C489.752 243.453 466.711 246.529 434.238 259.323C434.116 259.372 433.985 259.396 433.854 259.394C433.723 259.393 433.593 259.365 433.472 259.313C433.352 259.262 433.242 259.187 433.15 259.093C433.059 258.999 432.986 258.888 432.938 258.766C432.889 258.644 432.865 258.513 432.866 258.382C432.868 258.251 432.895 258.121 432.947 258C432.999 257.88 433.074 257.77 433.168 257.678C433.262 257.587 433.373 257.514 433.495 257.466L433.498 257.464L433.505 257.462C467.972 243.882 490.784 241.264 496.093 250.28C504.913 265.259 461.102 306.858 396.353 344.984Z" fill="#3F3D56"/>
<path id="Vector_4" d="M391.495 342.499C319.059 305.909 258.315 317.798 257.498 311.487C257.499 301.065 278.356 291.768 314.72 285.981C314.85 285.959 314.982 285.963 315.11 285.992C315.239 286.022 315.36 286.076 315.467 286.152C315.574 286.229 315.665 286.325 315.734 286.437C315.804 286.548 315.851 286.672 315.873 286.802C315.895 286.931 315.891 287.064 315.861 287.192C315.832 287.32 315.777 287.441 315.701 287.548C315.624 287.655 315.528 287.746 315.416 287.815C315.305 287.885 315.18 287.932 315.051 287.954L315.047 287.954L315.034 287.956C280.779 293.408 259.499 302.425 259.498 311.487C259.496 327.207 319.944 340.493 391.495 340.499C463.047 340.506 523.496 327.231 523.498 311.511C523.499 302.41 502.084 293.368 467.61 287.913C467.481 287.893 467.356 287.848 467.244 287.78C467.131 287.712 467.033 287.623 466.956 287.517C466.878 287.411 466.822 287.291 466.79 287.163C466.759 287.036 466.753 286.903 466.773 286.773C466.793 286.644 466.838 286.519 466.906 286.407C466.974 286.294 467.064 286.196 467.169 286.119C467.275 286.041 467.395 285.985 467.523 285.953C467.651 285.922 467.783 285.916 467.913 285.936L467.916 285.937L467.923 285.938C504.514 291.728 525.499 301.049 525.498 311.511C525.496 328.895 458.564 376.378 391.495 342.499Z" fill="#3F3D56"/>
</g>
</g>
</svg>
